<svg width="1000" height="1000" viewBox="0 0 1000 1000" fill="none" xmlns="http://www.w3.org/2000/svg">
<g clip-path="url(#clip0_307_83)">
<rect width="1000" height="1000" fill="white"/>
<g clip-path="url(#clip1_307_83)">
<rect x="375" width="125" height="125" fill="#D08D67"/>
<rect x="375" y="500" width="125" height="125" fill="#AC6048"/>
<rect x="375" y="250" width="125" height="125" fill="#BD7555"/>
<rect x="375" y="750" width="125" height="125" fill="#B56A4B"/>
<rect x="375" y="125" width="125" height="125" fill="#C47E5C"/>
<rect x="375" y="625" width="125" height="125" fill="#AE6248"/>
<rect x="375" y="375" width="125" height="125" fill="#B76D52"/>
<rect x="375" y="875" width="125" height="125" fill="#B9714D"/>
<rect x="875" width="125" height="125" fill="#312018"/>
<rect x="875" y="500" width="125" height="125" fill="#4B3D3A"/>
<rect x="875" y="250" width="125" height="125" fill="#7C4D3D"/>
<rect x="875" y="750" width="125" height="125" fill="#2C1D16"/>
<rect x="875" y="125" width="125" height="125" fill="#5D3929"/>
<rect x="875" y="625" width="125" height="125" fill="#342721"/>
<rect x="875" y="375" width="125" height="125" fill="#8E5D4E"/>
<rect x="875" y="875" width="125" height="125" fill="#33221B"/>
<rect width="125" height="125" fill="#C6AE8C"/>
<rect y="500" width="125" height="125" fill="#584537"/>
<rect y="250" width="125" height="125" fill="#6F6D76"/>
<rect y="750" width="125" height="125" fill="#4F3727"/>
<rect y="125" width="125" height="125" fill="#7F797B"/>
<rect y="625" width="125" height="125" fill="#463428"/>
<rect y="375" width="125" height="125" fill="#978579"/>
<rect y="875" width="125" height="125" fill="#724E37"/>
<rect x="500" width="125" height="125" fill="#C78660"/>
<rect x="500" y="500" width="125" height="125" fill="#B66B4C"/>
<rect x="500" y="250" width="125" height="125" fill="#BC7657"/>
<rect x="500" y="750" width="125" height="125" fill="#AB6344"/>
<rect x="500" y="125" width="125" height="125" fill="#B87857"/>
<rect x="500" y="625" width="125" height="125" fill="#A55E42"/>
<rect x="500" y="375" width="125" height="125" fill="#D38463"/>
<rect x="500" y="875" width="125" height="125" fill="#C67B55"/>
<rect x="250" width="125" height="125" fill="#B97A59"/>
<rect x="250" y="500" width="125" height="125" fill="#9F5944"/>
<rect x="250" y="250" width="125" height="125" fill="#B47254"/>
<rect x="250" y="750" width="125" height="125" fill="#A86549"/>
<rect x="250" y="125" width="125" height="125" fill="#B47254"/>
<rect x="250" y="625" width="125" height="125" fill="#9C5A42"/>
<rect x="250" y="375" width="125" height="125" fill="#B97254"/>
<rect x="250" y="875" width="125" height="125" fill="#BD7754"/>
<rect x="750" width="125" height="125" fill="#774D35"/>
<rect x="750" y="500" width="125" height="125" fill="#764B3B"/>
<rect x="750" y="250" width="125" height="125" fill="#955B45"/>
<rect x="750" y="750" width="125" height="125" fill="#5E3829"/>
<rect x="750" y="125" width="125" height="125" fill="#89553D"/>
<rect x="750" y="625" width="125" height="125" fill="#5E3829"/>
<rect x="750" y="375" width="125" height="125" fill="#9B5E49"/>
<rect x="750" y="875" width="125" height="125" fill="#784B35"/>
<rect x="125" width="125" height="125" fill="#B68565"/>
<rect x="125" y="500" width="125" height="125" fill="#83503F"/>
<rect x="125" y="250" width="125" height="125" fill="#9C6E5F"/>
<rect x="125" y="750" width="125" height="125" fill="#86543E"/>
<rect x="125" y="125" width="125" height="125" fill="#9C7260"/>
<rect x="125" y="625" width="125" height="125" fill="#7B4C39"/>
<rect x="125" y="375" width="125" height="125" fill="#AD7961"/>
<rect x="125" y="875" width="125" height="125" fill="#A66B4C"/>
<rect x="625" width="125" height="125" fill="#A96F4C"/>
<rect x="625" y="500" width="125" height="125" fill="#9A5A41"/>
<rect x="625" y="250" width="125" height="125" fill="#AA6A4D"/>
<rect x="625" y="750" width="125" height="125" fill="#864D35"/>
<rect x="625" y="125" width="125" height="125" fill="#A76A4D"/>
<rect x="625" y="625" width="125" height="125" fill="#864D35"/>
<rect x="625" y="375" width="125" height="125" fill="#B26C52"/>
<rect x="625" y="875" width="125" height="125" fill="#A96849"/>
</g>
<rect width="1000" height="1000" fill="#3B1919" fill-opacity="0.2" style="mix-blend-mode:plus-darker"/>
<rect width="452" height="156" transform="translate(274 422)" fill="#240F0C"/>
<path d="M290 494.545V443.636H322.019V494.545H314.014V450.909H298.005V494.545H290Z" fill="white"/>
<path d="M337.997 487.273H333.995V450.909H337.997V447.273H342V443.636H366.014V447.273H370.016V450.909H374.019V458.182H366.014V454.545H362.012V450.909H346.002V454.545H342V483.636H346.002V487.273H362.012V483.636H366.014V480H374.019V487.273H370.016V490.909H366.014V494.545H342V490.909H337.997V487.273Z" fill="white"/>
<path d="M381.992 494.545V443.636H389.997V465.455H393.999V461.818H398.002V458.182H402.004V454.545H406.007V450.909H410.009V447.273H414.011V443.636H422.016V450.909H418.014V454.545H414.011V458.182H410.009V461.818H406.007V465.455H402.004V472.727H406.007V476.364H410.009V480H414.011V483.636H418.014V487.273H422.016V494.545H414.011V490.909H410.009V487.273H406.007V483.636H402.004V480H398.002V476.364H389.997V494.545H381.992Z" fill="white"/>
<path d="M437.994 483.636H441.997V487.273H458.006V483.636H462.009V454.545H458.006V450.909H441.997V454.545H437.994V483.636ZM433.992 487.273H429.99V450.909H433.992V447.273H437.994V443.636H462.009V447.273H466.011V450.909H470.013V487.273H466.011V490.909H462.009V494.545H437.994V490.909H433.992V487.273Z" fill="white"/>
<path d="M489.994 450.909V465.455H506.004V461.818H510.006V454.545H506.004V450.909H489.994ZM506.004 487.273V483.636H510.006V476.364H506.004V472.727H489.994V487.273H506.004ZM481.989 450.909H477.987V443.636H510.006V447.273H514.008V450.909H518.011V465.455H514.008V472.727H518.011V487.273H514.008V490.909H510.006V494.545H477.987V487.273H481.989V450.909Z" fill="white"/>
<path d="M529.987 487.273H525.984V450.909H529.987V447.273H533.989V443.636H558.003V447.273H562.006V450.909H566.008V458.182H558.003V454.545H554.001V450.909H537.991V454.545H533.989V483.636H537.991V487.273H554.001V483.636H558.003V480H566.008V487.273H562.006V490.909H558.003V494.545H533.989V490.909H529.987V487.273Z" fill="white"/>
<path d="M573.982 494.545V443.636H581.986V465.455H585.989V461.818H589.991V458.182H593.993V454.545H597.996V450.909H601.998V447.273H606.001V443.636H614.005V450.909H610.003V454.545H606.001V458.182H601.998V461.818H597.996V465.455H593.993V472.727H597.996V476.364H601.998V480H606.001V483.636H610.003V487.273H614.005V494.545H606.001V490.909H601.998V487.273H597.996V483.636H593.993V480H589.991V476.364H581.986V494.545H573.982Z" fill="white"/>
<path d="M662.003 494.545H653.998V465.455H649.996V469.091H645.993V472.727H641.991V476.364H637.988V480H633.986V483.636H629.984V494.545H621.979V443.636H629.984V472.727H633.986V469.091H637.988V465.455H641.991V461.818H645.993V458.182H649.996V454.545H653.998V443.636H662.003V494.545Z" fill="white"/>
<path d="M710 494.545H701.995V469.091H697.993V472.727H693.99V476.364H689.988V480H685.986V483.636H681.983V487.273H677.981V494.545H669.976V450.909H677.981V476.364H681.983V472.727H685.986V469.091H689.988V465.455H693.99V461.818H697.993V458.182H701.995V450.909H710V494.545ZM677.981 443.636H673.979V440H681.983V443.636H685.986V447.273H693.99V443.636H697.993V440H705.998V443.636H701.995V447.273H697.993V450.909H681.983V447.273H677.981V443.636Z" fill="white"/>
<path d="M290 560V509.091H322.019V560H314.014V516.364H298.005V560H290Z" fill="white"/>
<path d="M342 549.091H346.002V552.727H362.012V549.091H366.014V520H362.012V516.364H346.002V520H342V549.091ZM337.997 552.727H333.995V516.364H337.997V512.727H342V509.091H366.014V512.727H370.016V516.364H374.019V552.727H370.016V556.364H366.014V560H342V556.364H337.997V552.727Z" fill="white"/>
<path d="M385.995 552.727H381.992V516.364H385.995V512.727H389.997V509.091H414.011V512.727H418.014V516.364H422.016V523.636H414.011V520H410.009V516.364H393.999V520H389.997V549.091H393.999V552.727H410.009V549.091H414.011V545.455H422.016V552.727H418.014V556.364H414.011V560H389.997V556.364H385.995V552.727Z" fill="white"/>
<path d="M445.999 560V516.364H429.99V509.091H470.013V516.364H454.004V560H445.999Z" fill="white"/>
<path d="M481.989 538.182V530.909H514.008V538.182H481.989Z" fill="white"/>
<path d="M529.987 560V509.091H562.006V560H554.001V516.364H537.991V560H529.987Z" fill="white"/>
<path d="M581.986 541.818H606.001V527.273H601.998V523.636H597.996V520H589.991V523.636H585.989V527.273H581.986V541.818ZM573.982 560V523.636H577.984V520H581.986V516.364H585.989V512.727H589.991V509.091H597.996V512.727H601.998V516.364H606.001V520H610.003V523.636H614.005V560H606.001V549.091H581.986V560H573.982Z" fill="white"/>
<path d="M621.979 560V509.091H629.984V530.909H653.998V509.091H662.003V560H653.998V538.182H629.984V560H621.979Z" fill="white"/>
<path d="M669.976 560V509.091H677.981V530.909H681.983V527.273H685.986V523.636H689.988V520H693.99V516.364H697.993V512.727H701.995V509.091H710V516.364H705.998V520H701.995V523.636H697.993V527.273H693.99V530.909H689.988V538.182H693.99V541.818H697.993V545.455H701.995V549.091H705.998V552.727H710V560H701.995V556.364H697.993V552.727H693.99V549.091H689.988V545.455H685.986V541.818H677.981V560H669.976Z" fill="white"/>
<path opacity="0.9" d="M377.034 75.6485C375.514 76.9557 373.812 77.9588 371.927 78.658C370.042 79.3572 368.089 79.7068 366.068 79.7068C364.517 79.7068 363.02 79.5016 361.576 79.0912C360.147 78.696 358.802 78.1336 357.541 77.4041C356.294 76.6593 355.154 75.7701 354.121 74.7366C353.087 73.703 352.198 72.563 351.453 71.3167C350.724 70.0551 350.154 68.71 349.743 67.2812C349.348 65.8373 349.151 64.3402 349.151 62.7898C349.151 61.2395 349.348 59.7423 349.743 58.2984C350.154 56.8544 350.724 55.5093 351.453 54.2629C352.198 53.0014 353.087 51.8538 354.121 50.8203C355.154 49.7867 356.294 48.9052 357.541 48.1756C358.802 47.4308 360.147 46.8608 361.576 46.4656C363.02 46.0553 364.517 45.8501 366.068 45.8501C368.089 45.8501 370.042 46.1997 371.927 46.8988C373.812 47.5828 375.514 48.586 377.034 49.9083L373.568 55.6081C372.611 54.5745 371.479 53.7842 370.171 53.237C368.864 52.6746 367.496 52.3934 366.068 52.3934C364.624 52.3934 363.271 52.667 362.009 53.2142C360.748 53.7614 359.646 54.5061 358.703 55.4485C357.761 56.3757 357.016 57.4776 356.469 58.7544C355.922 60.0159 355.648 61.3611 355.648 62.7898C355.648 64.2186 355.922 65.5637 356.469 66.8253C357.016 68.0716 357.761 69.166 358.703 70.1083C359.646 71.0507 360.748 71.7955 362.009 72.3427C363.271 72.8898 364.624 73.1634 366.068 73.1634C367.496 73.1634 368.864 72.8898 370.171 72.3427C371.479 71.7803 372.611 70.9823 373.568 69.9487L377.034 75.6485ZM402.911 66.5745C402.911 68.3984 402.584 70.1007 401.931 71.6815C401.277 73.247 400.388 74.6074 399.263 75.7625C398.138 76.9025 396.816 77.8068 395.296 78.4756C393.791 79.1292 392.173 79.456 390.44 79.456C388.722 79.456 387.104 79.1292 385.584 78.4756C384.079 77.8068 382.757 76.9025 381.617 75.7625C380.492 74.6074 379.603 73.247 378.949 71.6815C378.296 70.1007 377.969 68.3984 377.969 66.5745C377.969 64.7201 378.296 63.0026 378.949 61.4219C379.603 59.8411 380.492 58.4808 381.617 57.3408C382.757 56.1857 384.079 55.2813 385.584 54.6277C387.104 53.9742 388.722 53.6474 390.44 53.6474C392.173 53.6474 393.791 53.959 395.296 54.5821C396.816 55.1901 398.138 56.0641 399.263 57.204C400.388 58.3288 401.277 59.6891 401.931 61.2851C402.584 62.8658 402.911 64.629 402.911 66.5745ZM396.641 66.5745C396.641 65.5713 396.474 64.667 396.14 63.8614C395.82 63.0406 395.38 62.3414 394.817 61.7639C394.255 61.1711 393.594 60.7227 392.834 60.4187C392.089 60.0995 391.291 59.9399 390.44 59.9399C389.589 59.9399 388.783 60.0995 388.023 60.4187C387.278 60.7227 386.625 61.1711 386.062 61.7639C385.515 62.3414 385.082 63.0406 384.763 63.8614C384.444 64.667 384.284 65.5713 384.284 66.5745C384.284 67.5168 384.444 68.3908 384.763 69.1964C385.082 70.0019 385.515 70.7011 386.062 71.2939C386.625 71.8867 387.278 72.3579 388.023 72.7074C388.783 73.0418 389.589 73.209 390.44 73.209C391.291 73.209 392.089 73.0494 392.834 72.7302C393.594 72.4111 394.255 71.9627 394.817 71.3851C395.38 70.8075 395.82 70.1083 396.14 69.2876C396.474 68.4668 396.641 67.5624 396.641 66.5745ZM419.76 79H405.533V72.7986H419.76C420.185 72.7986 420.55 72.6466 420.854 72.3427C421.158 72.0387 421.31 71.6739 421.31 71.2483C421.31 70.8075 421.158 70.5187 420.854 70.3819C420.55 70.2451 420.185 70.1767 419.76 70.1767H413.285C412.205 70.1767 411.195 69.9715 410.252 69.5612C409.31 69.1508 408.489 68.596 407.79 67.8968C407.091 67.1825 406.536 66.3541 406.126 65.4117C405.73 64.4694 405.533 63.4586 405.533 62.3794C405.533 61.3003 405.73 60.2895 406.126 59.3472C406.536 58.4048 407.091 57.584 407.79 56.8848C408.489 56.1857 409.31 55.6385 410.252 55.2433C411.195 54.8329 412.205 54.6277 413.285 54.6277H425.892V60.8291H413.285C412.859 60.8291 412.494 60.9811 412.19 61.2851C411.886 61.5891 411.734 61.9539 411.734 62.3794C411.734 62.8202 411.886 63.2002 412.19 63.5194C412.494 63.8234 412.859 63.9754 413.285 63.9754H419.76C420.823 63.9754 421.827 64.1578 422.769 64.5226C423.711 64.8721 424.532 65.3661 425.231 66.0045C425.93 66.6429 426.485 67.4104 426.896 68.3072C427.306 69.204 427.511 70.1843 427.511 71.2483C427.511 72.3275 427.306 73.3382 426.896 74.2806C426.485 75.2077 425.93 76.0285 425.231 76.7429C424.532 77.4421 423.711 77.9968 422.769 78.4072C421.827 78.8024 420.823 79 419.76 79ZM461.892 79H455.691V63.4966C455.691 63.071 455.607 62.6682 455.44 62.2882C455.288 61.9083 455.068 61.5739 454.779 61.2851C454.49 60.9963 454.156 60.7759 453.776 60.6239C453.396 60.4567 452.993 60.3731 452.567 60.3731C452.142 60.3731 451.739 60.4567 451.359 60.6239C450.994 60.7759 450.668 60.9963 450.379 61.2851C450.105 61.5739 449.885 61.9083 449.718 62.2882C449.566 62.6682 449.49 63.071 449.49 63.4966V79H443.265V63.4966C443.265 63.071 443.182 62.6682 443.015 62.2882C442.863 61.9083 442.642 61.5739 442.353 61.2851C442.065 60.9963 441.73 60.7759 441.35 60.6239C440.97 60.4567 440.568 60.3731 440.142 60.3731C439.716 60.3731 439.314 60.4567 438.934 60.6239C438.569 60.7759 438.242 60.9963 437.953 61.2851C437.68 61.5739 437.459 61.9083 437.292 62.2882C437.14 62.6682 437.064 63.071 437.064 63.4966V79H430.84V54.5821H432.345L434.032 56.4517C434.898 55.7221 435.848 55.1597 436.882 54.7645C437.93 54.3541 439.017 54.149 440.142 54.149C441.282 54.149 442.391 54.3617 443.471 54.7873C444.565 55.2129 445.523 55.9501 446.343 56.9988C446.723 56.4821 447.156 56.0413 447.643 55.6765C448.129 55.3117 448.638 55.0153 449.17 54.7873C449.718 54.5593 450.28 54.3997 450.858 54.3085C451.435 54.2022 452.005 54.149 452.567 54.149C453.859 54.149 455.068 54.3921 456.193 54.8785C457.332 55.3649 458.32 56.0337 459.156 56.8848C460.008 57.7208 460.676 58.7088 461.163 59.8487C461.649 60.9887 461.892 62.2046 461.892 63.4966V79ZM473.793 47.9476C473.793 48.5252 473.679 49.0647 473.451 49.5663C473.239 50.0679 472.942 50.5087 472.562 50.8887C472.182 51.2535 471.734 51.5499 471.217 51.7778C470.716 51.9906 470.176 52.097 469.598 52.097C469.021 52.097 468.474 51.9906 467.957 51.7778C467.455 51.5499 467.015 51.2535 466.635 50.8887C466.27 50.5087 465.973 50.0679 465.745 49.5663C465.533 49.0647 465.426 48.5252 465.426 47.9476C465.426 47.3852 465.533 46.8532 465.745 46.3517C465.973 45.8349 466.27 45.3941 466.635 45.0293C467.015 44.6493 467.455 44.3529 467.957 44.1401C468.474 43.9121 469.021 43.7982 469.598 43.7982C470.176 43.7982 470.716 43.9121 471.217 44.1401C471.734 44.3529 472.182 44.6493 472.562 45.0293C472.942 45.3941 473.239 45.8349 473.451 46.3517C473.679 46.8532 473.793 47.3852 473.793 47.9476ZM472.722 79H466.452V54.5821H472.722V79ZM499.967 79H492.352L487.496 71.5219L482.594 79H474.979L483.893 66.4833L474.979 54.4453H482.594L487.496 61.4447L492.352 54.4453H499.967L491.03 66.4833L499.967 79ZM522.492 79H515.949V46.3061H538.839V52.8494H522.492V59.3928H532.296V65.9361H522.492V79ZM562.277 66.5745C562.277 68.3984 561.95 70.1007 561.296 71.6815C560.643 73.247 559.754 74.6074 558.629 75.7625C557.504 76.9025 556.182 77.8068 554.662 78.4756C553.157 79.1292 551.538 79.456 549.806 79.456C548.088 79.456 546.469 79.1292 544.95 78.4756C543.445 77.8068 542.122 76.9025 540.982 75.7625C539.858 74.6074 538.969 73.247 538.315 71.6815C537.661 70.1007 537.335 68.3984 537.335 66.5745C537.335 64.7201 537.661 63.0026 538.315 61.4219C538.969 59.8411 539.858 58.4808 540.982 57.3408C542.122 56.1857 543.445 55.2813 544.95 54.6277C546.469 53.9742 548.088 53.6474 549.806 53.6474C551.538 53.6474 553.157 53.959 554.662 54.5821C556.182 55.1901 557.504 56.0641 558.629 57.204C559.754 58.3288 560.643 59.6891 561.296 61.2851C561.95 62.8658 562.277 64.629 562.277 66.5745ZM556.007 66.5745C556.007 65.5713 555.84 64.667 555.506 63.8614C555.186 63.0406 554.746 62.3414 554.183 61.7639C553.621 61.1711 552.96 60.7227 552.2 60.4187C551.455 60.0995 550.657 59.9399 549.806 59.9399C548.955 59.9399 548.149 60.0995 547.389 60.4187C546.644 60.7227 545.991 61.1711 545.428 61.7639C544.881 62.3414 544.448 63.0406 544.129 63.8614C543.81 64.667 543.65 65.5713 543.65 66.5745C543.65 67.5168 543.81 68.3908 544.129 69.1964C544.448 70.0019 544.881 70.7011 545.428 71.2939C545.991 71.8867 546.644 72.3579 547.389 72.7074C548.149 73.0418 548.955 73.209 549.806 73.209C550.657 73.209 551.455 73.0494 552.2 72.7302C552.96 72.4111 553.621 71.9627 554.183 71.3851C554.746 70.8075 555.186 70.1083 555.506 69.2876C555.84 68.4668 556.007 67.5624 556.007 66.5745ZM571.944 79H565.719V54.5821H567.224L569.276 57.4776C570.279 56.5657 571.419 55.8665 572.696 55.3801C573.973 54.8785 575.295 54.6277 576.663 54.6277H582.158V60.8291H576.663C576.01 60.8291 575.394 60.9507 574.816 61.1939C574.239 61.4371 573.737 61.7715 573.312 62.197C572.886 62.6226 572.552 63.1242 572.308 63.7018C572.065 64.2794 571.944 64.8949 571.944 65.5485V79ZM594.31 73.0266C594.553 73.1026 594.796 73.1558 595.039 73.1862C595.282 73.2014 595.526 73.209 595.769 73.209C596.377 73.209 596.962 73.1254 597.524 72.9582C598.087 72.791 598.611 72.5554 599.097 72.2515C599.599 71.9323 600.04 71.5523 600.42 71.1115C600.815 70.6555 601.134 70.1539 601.377 69.6068L605.937 74.1894C605.36 75.0102 604.691 75.7473 603.931 76.4009C603.186 77.0545 602.373 77.6093 601.491 78.0652C600.625 78.5212 599.705 78.8632 598.733 79.0912C597.775 79.3344 596.787 79.456 595.769 79.456C594.051 79.456 592.432 79.1368 590.913 78.4984C589.408 77.86 588.085 76.9709 586.945 75.8309C585.821 74.691 584.932 73.3382 584.278 71.7727C583.624 70.1919 583.298 68.4592 583.298 66.5745C583.298 64.6442 583.624 62.881 584.278 61.2851C584.932 59.6891 585.821 58.3288 586.945 57.204C588.085 56.0793 589.408 55.2053 590.913 54.5821C592.432 53.959 594.051 53.6474 595.769 53.6474C596.787 53.6474 597.783 53.769 598.755 54.0122C599.728 54.2553 600.648 54.6049 601.514 55.0609C602.396 55.5169 603.216 56.0793 603.976 56.7481C604.736 57.4016 605.405 58.1388 605.983 58.9596L594.31 73.0266ZM597.501 60.1907C597.213 60.0843 596.924 60.0159 596.635 59.9855C596.362 59.9551 596.073 59.9399 595.769 59.9399C594.918 59.9399 594.112 60.0995 593.352 60.4187C592.607 60.7227 591.954 61.1635 591.391 61.7411C590.844 62.3186 590.411 63.0178 590.092 63.8386C589.773 64.6442 589.613 65.5561 589.613 66.5745C589.613 66.8025 589.621 67.0609 589.636 67.3496C589.666 67.6384 589.704 67.9348 589.75 68.2388C589.811 68.5276 589.879 68.8088 589.955 69.0824C590.031 69.356 590.13 69.5992 590.251 69.812L597.501 60.1907ZM622.535 79H608.308V72.7986H622.535C622.961 72.7986 623.325 72.6466 623.629 72.3427C623.933 72.0387 624.085 71.6739 624.085 71.2483C624.085 70.8075 623.933 70.5187 623.629 70.3819C623.325 70.2451 622.961 70.1767 622.535 70.1767H616.06C614.981 70.1767 613.97 69.9715 613.028 69.5612C612.085 69.1508 611.265 68.596 610.565 67.8968C609.866 67.1825 609.311 66.3541 608.901 65.4117C608.506 64.4694 608.308 63.4586 608.308 62.3794C608.308 61.3003 608.506 60.2895 608.901 59.3472C609.311 58.4048 609.866 57.584 610.565 56.8848C611.265 56.1857 612.085 55.6385 613.028 55.2433C613.97 54.8329 614.981 54.6277 616.06 54.6277H628.668V60.8291H616.06C615.634 60.8291 615.27 60.9811 614.966 61.2851C614.662 61.5891 614.51 61.9539 614.51 62.3794C614.51 62.8202 614.662 63.2002 614.966 63.5194C615.27 63.8234 615.634 63.9754 616.06 63.9754H622.535C623.599 63.9754 624.602 64.1578 625.544 64.5226C626.487 64.8721 627.308 65.3661 628.007 66.0045C628.706 66.6429 629.261 67.4104 629.671 68.3072C630.081 69.204 630.287 70.1843 630.287 71.2483C630.287 72.3275 630.081 73.3382 629.671 74.2806C629.261 75.2077 628.706 76.0285 628.007 76.7429C627.308 77.4421 626.487 77.9968 625.544 78.4072C624.602 78.8024 623.599 79 622.535 79ZM645.858 79C644.354 79 642.94 78.7188 641.618 78.1564C640.295 77.5789 639.133 76.7961 638.13 75.8081C637.142 74.805 636.359 73.6422 635.781 72.3199C635.219 70.9975 634.938 69.584 634.938 68.0792V60.8291H631.905V54.6277H634.938V44.8697H641.139V54.6277H650.578V60.8291H641.139V68.0792C641.139 68.7328 641.261 69.3484 641.504 69.9259C641.747 70.4883 642.081 70.9823 642.507 71.4079C642.933 71.8335 643.434 72.1755 644.012 72.4339C644.589 72.677 645.205 72.7986 645.858 72.7986H650.578V79H645.858Z" fill="white"/>
<mask id="path-68-outside-1_307_83" maskUnits="userSpaceOnUse" x="265.756" y="620.85" width="469" height="38" fill="black">
<rect fill="white" x="265.756" y="620.85" width="469" height="38"/>
<path d="M275.431 626.075V623.85H279.881V628.3H277.656V630.525H275.431V634.975H273.206V643.875H275.431V648.325H277.656V650.55H279.881V655H275.431V652.775H273.206V650.55H270.981V646.1H268.756V632.75H270.981V628.3H273.206V626.075H275.431Z"/>
<path d="M297.664 655V632.75H293.214V628.3H295.439V626.075H297.664V623.85H302.114V655H297.664Z"/>
<path d="M319.897 648.325H322.122V650.55H331.022V648.325H333.247V630.525H331.022V628.3H322.122V630.525H319.897V648.325ZM317.672 650.55H315.447V628.3H317.672V626.075H319.897V623.85H333.247V626.075H335.472V628.3H337.697V650.55H335.472V652.775H333.247V655H319.897V652.775H317.672V650.55Z"/>
<path d="M351.029 655V628.3H342.129V623.85H364.379V628.3H355.479V655H351.029Z"/>
<path d="M368.812 655V623.85H373.262V637.2H386.612V623.85H391.062V655H386.612V641.65H373.262V655H368.812Z"/>
<path d="M426.627 641.65H439.977V634.975H437.752V632.75H435.527V630.525H431.077V632.75H428.852V634.975H426.627V641.65ZM422.177 655V632.75H424.402V630.525H426.627V628.3H428.852V626.075H431.077V623.85H435.527V626.075H437.752V628.3H439.977V630.525H442.202V632.75H444.427V655H439.977V646.1H426.627V655H422.177Z"/>
<path d="M448.86 655V623.85H453.31V628.3H455.535V632.75H457.76V634.975H459.985V637.2H462.21V639.425H464.435V641.65H466.66V623.85H471.11V655H466.66V650.55H464.435V646.1H462.21V643.875H459.985V641.65H457.76V639.425H455.535V637.2H453.31V655H448.86Z"/>
<path d="M475.542 655V623.85H479.992V628.3H482.217V632.75H484.442V634.975H486.667V637.2H488.892V639.425H491.117V641.65H493.342V623.85H497.792V655H493.342V650.55H491.117V646.1H488.892V643.875H486.667V641.65H484.442V639.425H482.217V637.2H479.992V655H475.542Z"/>
<path d="M506.675 655V650.55H511.125V628.3H506.675V623.85H520.025V628.3H515.575V650.55H520.025V655H506.675Z"/>
<path d="M531.133 637.2H528.908V623.85H533.358V637.2H535.583V641.65H537.808V646.1H542.258V641.65H544.483V637.2H546.708V623.85H551.158V637.2H548.933V641.65H546.708V646.1H544.483V650.55H542.258V655H537.808V650.55H535.583V646.1H533.358V641.65H531.133V637.2Z"/>
<path d="M555.59 655V623.85H577.84V628.3H560.04V637.2H575.615V641.65H560.04V650.55H577.84V655H555.59Z"/>
<path d="M586.723 637.2H597.848V634.975H600.073V630.525H597.848V628.3H586.723V637.2ZM582.273 655V623.85H600.073V626.075H602.298V628.3H604.523V637.2H602.298V639.425H600.073V641.65H597.848V643.875H600.073V648.325H602.298V652.775H604.523V655H597.848V650.55H595.623V646.1H593.398V641.65H586.723V655H582.273Z"/>
<path d="M611.18 650.55H608.956V646.1H613.405V648.325H615.63V650.55H624.53V648.325H626.755V643.875H624.53V641.65H613.405V639.425H611.18V637.2H608.956V628.3H611.18V626.075H613.405V623.85H626.755V626.075H628.98V628.3H631.206V632.75H626.755V630.525H624.53V628.3H615.63V630.525H613.405V634.975H615.63V637.2H626.755V639.425H628.98V641.65H631.206V650.55H628.98V652.775H626.755V655H613.405V652.775H611.18V650.55Z"/>
<path d="M640.088 641.65H653.438V634.975H651.213V632.75H648.988V630.525H644.538V632.75H642.313V634.975H640.088V641.65ZM635.638 655V632.75H637.863V630.525H640.088V628.3H642.313V626.075H644.538V623.85H648.988V626.075H651.213V628.3H653.438V630.525H655.663V632.75H657.888V655H653.438V646.1H640.088V655H635.638Z"/>
<path d="M666.771 637.2H677.896V634.975H680.121V630.525H677.896V628.3H666.771V637.2ZM662.321 655V623.85H680.121V626.075H682.346V628.3H684.571V637.2H682.346V639.425H680.121V641.65H677.896V643.875H680.121V648.325H682.346V652.775H684.571V655H677.896V650.55H675.671V646.1H673.446V641.65H666.771V655H662.321Z"/>
<path d="M691.228 628.3H689.003V623.85H693.453V628.3H695.678V632.75H697.903V637.2H702.353V632.75H704.578V628.3H706.803V623.85H711.253V628.3H709.028V632.75H706.803V637.2H704.578V641.65H702.353V655H697.903V641.65H695.678V637.2H693.453V632.75H691.228V628.3Z"/>
<path d="M724.586 626.075H726.811V628.3H729.036V632.75H731.261V646.1H729.036V650.55H726.811V652.775H724.586V655H720.136V650.55H722.361V648.325H724.586V643.875H726.811V634.975H724.586V630.525H722.361V628.3H720.136V623.85H724.586V626.075Z"/>
</mask>
<path d="M275.431 626.075V623.85H279.881V628.3H277.656V630.525H275.431V634.975H273.206V643.875H275.431V648.325H277.656V650.55H279.881V655H275.431V652.775H273.206V650.55H270.981V646.1H268.756V632.75H270.981V628.3H273.206V626.075H275.431Z" fill="#FFD53B"/>
<path d="M297.664 655V632.75H293.214V628.3H295.439V626.075H297.664V623.85H302.114V655H297.664Z" fill="#FFD53B"/>
<path d="M319.897 648.325H322.122V650.55H331.022V648.325H333.247V630.525H331.022V628.3H322.122V630.525H319.897V648.325ZM317.672 650.55H315.447V628.3H317.672V626.075H319.897V623.85H333.247V626.075H335.472V628.3H337.697V650.55H335.472V652.775H333.247V655H319.897V652.775H317.672V650.55Z" fill="#FFD53B"/>
<path d="M351.029 655V628.3H342.129V623.85H364.379V628.3H355.479V655H351.029Z" fill="#FFD53B"/>
<path d="M368.812 655V623.85H373.262V637.2H386.612V623.85H391.062V655H386.612V641.65H373.262V655H368.812Z" fill="#FFD53B"/>
<path d="M426.627 641.65H439.977V634.975H437.752V632.75H435.527V630.525H431.077V632.75H428.852V634.975H426.627V641.65ZM422.177 655V632.75H424.402V630.525H426.627V628.3H428.852V626.075H431.077V623.85H435.527V626.075H437.752V628.3H439.977V630.525H442.202V632.75H444.427V655H439.977V646.1H426.627V655H422.177Z" fill="#FFD53B"/>
<path d="M448.86 655V623.85H453.31V628.3H455.535V632.75H457.76V634.975H459.985V637.2H462.21V639.425H464.435V641.65H466.66V623.85H471.11V655H466.66V650.55H464.435V646.1H462.21V643.875H459.985V641.65H457.76V639.425H455.535V637.2H453.31V655H448.86Z" fill="#FFD53B"/>
<path d="M475.542 655V623.85H479.992V628.3H482.217V632.75H484.442V634.975H486.667V637.2H488.892V639.425H491.117V641.65H493.342V623.85H497.792V655H493.342V650.55H491.117V646.1H488.892V643.875H486.667V641.65H484.442V639.425H482.217V637.2H479.992V655H475.542Z" fill="#FFD53B"/>
<path d="M506.675 655V650.55H511.125V628.3H506.675V623.85H520.025V628.3H515.575V650.55H520.025V655H506.675Z" fill="#FFD53B"/>
<path d="M531.133 637.2H528.908V623.85H533.358V637.2H535.583V641.65H537.808V646.1H542.258V641.65H544.483V637.2H546.708V623.85H551.158V637.2H548.933V641.65H546.708V646.1H544.483V650.55H542.258V655H537.808V650.55H535.583V646.1H533.358V641.65H531.133V637.2Z" fill="#FFD53B"/>
<path d="M555.59 655V623.85H577.84V628.3H560.04V637.2H575.615V641.65H560.04V650.55H577.84V655H555.59Z" fill="#FFD53B"/>
<path d="M586.723 637.2H597.848V634.975H600.073V630.525H597.848V628.3H586.723V637.2ZM582.273 655V623.85H600.073V626.075H602.298V628.3H604.523V637.2H602.298V639.425H600.073V641.65H597.848V643.875H600.073V648.325H602.298V652.775H604.523V655H597.848V650.55H595.623V646.1H593.398V641.65H586.723V655H582.273Z" fill="#FFD53B"/>
<path d="M611.18 650.55H608.956V646.1H613.405V648.325H615.63V650.55H624.53V648.325H626.755V643.875H624.53V641.65H613.405V639.425H611.18V637.2H608.956V628.3H611.18V626.075H613.405V623.85H626.755V626.075H628.98V628.3H631.206V632.75H626.755V630.525H624.53V628.3H615.63V630.525H613.405V634.975H615.63V637.2H626.755V639.425H628.98V641.65H631.206V650.55H628.98V652.775H626.755V655H613.405V652.775H611.18V650.55Z" fill="#FFD53B"/>
<path d="M640.088 641.65H653.438V634.975H651.213V632.75H648.988V630.525H644.538V632.75H642.313V634.975H640.088V641.65ZM635.638 655V632.75H637.863V630.525H640.088V628.3H642.313V626.075H644.538V623.85H648.988V626.075H651.213V628.3H653.438V630.525H655.663V632.75H657.888V655H653.438V646.1H640.088V655H635.638Z" fill="#FFD53B"/>
<path d="M666.771 637.2H677.896V634.975H680.121V630.525H677.896V628.3H666.771V637.2ZM662.321 655V623.85H680.121V626.075H682.346V628.3H684.571V637.2H682.346V639.425H680.121V641.65H677.896V643.875H680.121V648.325H682.346V652.775H684.571V655H677.896V650.55H675.671V646.1H673.446V641.65H666.771V655H662.321Z" fill="#FFD53B"/>
<path d="M691.228 628.3H689.003V623.85H693.453V628.3H695.678V632.75H697.903V637.2H702.353V632.75H704.578V628.3H706.803V623.85H711.253V628.3H709.028V632.75H706.803V637.2H704.578V641.65H702.353V655H697.903V641.65H695.678V637.2H693.453V632.75H691.228V628.3Z" fill="#FFD53B"/>
<path d="M724.586 626.075H726.811V628.3H729.036V632.75H731.261V646.1H729.036V650.55H726.811V652.775H724.586V655H720.136V650.55H722.361V648.325H724.586V643.875H726.811V634.975H724.586V630.525H722.361V628.3H720.136V623.85H724.586V626.075Z" fill="#FFD53B"/>
<path d="M275.431 626.075V623.85H279.881V628.3H277.656V630.525H275.431V634.975H273.206V643.875H275.431V648.325H277.656V650.55H279.881V655H275.431V652.775H273.206V650.55H270.981V646.1H268.756V632.75H270.981V628.3H273.206V626.075H275.431Z" stroke="#370A00" stroke-width="6" mask="url(#path-68-outside-1_307_83)"/>
<path d="M297.664 655V632.75H293.214V628.3H295.439V626.075H297.664V623.85H302.114V655H297.664Z" stroke="#370A00" stroke-width="6" mask="url(#path-68-outside-1_307_83)"/>
<path d="M319.897 648.325H322.122V650.55H331.022V648.325H333.247V630.525H331.022V628.3H322.122V630.525H319.897V648.325ZM317.672 650.55H315.447V628.3H317.672V626.075H319.897V623.85H333.247V626.075H335.472V628.3H337.697V650.55H335.472V652.775H333.247V655H319.897V652.775H317.672V650.55Z" stroke="#370A00" stroke-width="6" mask="url(#path-68-outside-1_307_83)"/>
<path d="M351.029 655V628.3H342.129V623.85H364.379V628.3H355.479V655H351.029Z" stroke="#370A00" stroke-width="6" mask="url(#path-68-outside-1_307_83)"/>
<path d="M368.812 655V623.85H373.262V637.2H386.612V623.85H391.062V655H386.612V641.65H373.262V655H368.812Z" stroke="#370A00" stroke-width="6" mask="url(#path-68-outside-1_307_83)"/>
<path d="M426.627 641.65H439.977V634.975H437.752V632.75H435.527V630.525H431.077V632.75H428.852V634.975H426.627V641.65ZM422.177 655V632.75H424.402V630.525H426.627V628.3H428.852V626.075H431.077V623.85H435.527V626.075H437.752V628.3H439.977V630.525H442.202V632.75H444.427V655H439.977V646.1H426.627V655H422.177Z" stroke="#370A00" stroke-width="6" mask="url(#path-68-outside-1_307_83)"/>
<path d="M448.86 655V623.85H453.31V628.3H455.535V632.75H457.76V634.975H459.985V637.2H462.21V639.425H464.435V641.65H466.66V623.85H471.11V655H466.66V650.55H464.435V646.1H462.21V643.875H459.985V641.65H457.76V639.425H455.535V637.2H453.31V655H448.86Z" stroke="#370A00" stroke-width="6" mask="url(#path-68-outside-1_307_83)"/>
<path d="M475.542 655V623.85H479.992V628.3H482.217V632.75H484.442V634.975H486.667V637.2H488.892V639.425H491.117V641.65H493.342V623.85H497.792V655H493.342V650.55H491.117V646.1H488.892V643.875H486.667V641.65H484.442V639.425H482.217V637.2H479.992V655H475.542Z" stroke="#370A00" stroke-width="6" mask="url(#path-68-outside-1_307_83)"/>
<path d="M506.675 655V650.55H511.125V628.3H506.675V623.85H520.025V628.3H515.575V650.55H520.025V655H506.675Z" stroke="#370A00" stroke-width="6" mask="url(#path-68-outside-1_307_83)"/>
<path d="M531.133 637.2H528.908V623.85H533.358V637.2H535.583V641.65H537.808V646.1H542.258V641.65H544.483V637.2H546.708V623.85H551.158V637.2H548.933V641.65H546.708V646.1H544.483V650.55H542.258V655H537.808V650.55H535.583V646.1H533.358V641.65H531.133V637.2Z" stroke="#370A00" stroke-width="6" mask="url(#path-68-outside-1_307_83)"/>
<path d="M555.59 655V623.85H577.84V628.3H560.04V637.2H575.615V641.65H560.04V650.55H577.84V655H555.59Z" stroke="#370A00" stroke-width="6" mask="url(#path-68-outside-1_307_83)"/>
<path d="M586.723 637.2H597.848V634.975H600.073V630.525H597.848V628.3H586.723V637.2ZM582.273 655V623.85H600.073V626.075H602.298V628.3H604.523V637.2H602.298V639.425H600.073V641.65H597.848V643.875H600.073V648.325H602.298V652.775H604.523V655H597.848V650.55H595.623V646.1H593.398V641.65H586.723V655H582.273Z" stroke="#370A00" stroke-width="6" mask="url(#path-68-outside-1_307_83)"/>
<path d="M611.18 650.55H608.956V646.1H613.405V648.325H615.63V650.55H624.53V648.325H626.755V643.875H624.53V641.65H613.405V639.425H611.18V637.2H608.956V628.3H611.18V626.075H613.405V623.85H626.755V626.075H628.98V628.3H631.206V632.75H626.755V630.525H624.53V628.3H615.63V630.525H613.405V634.975H615.63V637.2H626.755V639.425H628.98V641.65H631.206V650.55H628.98V652.775H626.755V655H613.405V652.775H611.18V650.55Z" stroke="#370A00" stroke-width="6" mask="url(#path-68-outside-1_307_83)"/>
<path d="M640.088 641.65H653.438V634.975H651.213V632.75H648.988V630.525H644.538V632.75H642.313V634.975H640.088V641.65ZM635.638 655V632.75H637.863V630.525H640.088V628.3H642.313V626.075H644.538V623.85H648.988V626.075H651.213V628.3H653.438V630.525H655.663V632.75H657.888V655H653.438V646.1H640.088V655H635.638Z" stroke="#370A00" stroke-width="6" mask="url(#path-68-outside-1_307_83)"/>
<path d="M666.771 637.2H677.896V634.975H680.121V630.525H677.896V628.3H666.771V637.2ZM662.321 655V623.85H680.121V626.075H682.346V628.3H684.571V637.2H682.346V639.425H680.121V641.65H677.896V643.875H680.121V648.325H682.346V652.775H684.571V655H677.896V650.55H675.671V646.1H673.446V641.65H666.771V655H662.321Z" stroke="#370A00" stroke-width="6" mask="url(#path-68-outside-1_307_83)"/>
<path d="M691.228 628.3H689.003V623.85H693.453V628.3H695.678V632.75H697.903V637.2H702.353V632.75H704.578V628.3H706.803V623.85H711.253V628.3H709.028V632.75H706.803V637.2H704.578V641.65H702.353V655H697.903V641.65H695.678V637.2H693.453V632.75H691.228V628.3Z" stroke="#370A00" stroke-width="6" mask="url(#path-68-outside-1_307_83)"/>
<path d="M724.586 626.075H726.811V628.3H729.036V632.75H731.261V646.1H729.036V650.55H726.811V652.775H724.586V655H720.136V650.55H722.361V648.325H724.586V643.875H726.811V634.975H724.586V630.525H722.361V628.3H720.136V623.85H724.586V626.075Z" stroke="#370A00" stroke-width="6" mask="url(#path-68-outside-1_307_83)"/>
</g>
<defs>
<clipPath id="clip0_307_83">
<rect width="1000" height="1000" fill="white"/>
</clipPath>
<clipPath id="clip1_307_83">
<rect width="1000" height="1000" fill="white"/>
</clipPath>
</defs>
</svg>
